# xmcd
#
# Track frame offsets: 
#        150
#        18866
#        32275
#        55455
#        73279
#        88672
#        104359
#        115712
#        131565
#        153101
#        172344
#        187564
#        205577
#        223227
#        236659
#        253504
#        271644
#        287079
#        297360
#
# Disc length: 4294 seconds
#
# Revision: 0
# Processed by: cddbd v1.5.2PL0 Copyright (c) Steve Scherf et al.
# Submitted via: ExactAudioCopy v1.1
#
DISCID=0d10c413
DTITLE=Various Artist - 1000 Klassiekers Radio 2 Vol. 01 - CD 4
DYEAR=2009
DGENRE=Pop
TTITLE0=Tina Turner - The Best
TTITLE1=Belle Perez - Enamorada
TTITLE2=Europe - The Final Countdown
TTITLE3=The Jacksons - Can You Feel It
TTITLE4=Wim Soutaer - Allemaal
TTITLE5=Exile - Kiss You All Over
TTITLE6=André Van Duin - Als De Zon Schijnt
TTITLE7=Alicia Keys - Fallin'
TTITLE8=Kate Bush - Wuthering Heights (New Vocal)
TTITLE9=Liesbeth List and Ramses Shaffy - Pastorale
TTITLE10=Elvis Presley - Suspicious Minds
TTITLE11=Won Ton Ton - I Lie And I Cheat
TTITLE12=Willy Sommers - Als Een Leeuw In Een Kooi
TTITLE13=Roy Orbison - Oh, Pretty Woman
TTITLE14=2 Unlimited - No Limit
TTITLE15=Dr. Alban - Sing Hallelujah!
TTITLE16=De Kreuners - Ik Wil Je
TTITLE17=Blondie - Denis
TTITLE18=Meat Loaf - Paradise By The Dashboard Light
EXTD=
EXTT0=
EXTT1=
EXTT2=
EXTT3=
EXTT4=
EXTT5=
EXTT6=
EXTT7=
EXTT8=
EXTT9=
EXTT10=
EXTT11=
EXTT12=
EXTT13=
EXTT14=
EXTT15=
EXTT16=
EXTT17=
EXTT18=
PLAYORDER=
